<?xml version="1.0" encoding="UTF-8"?>
<svg version="1.1" xmlns="http://www.w3.org/2000/svg" width="512" height="512">
<path d="M0 0 C4.36969581 2.30851854 5.75661434 3.51322869 8 8 C8 11.96 8 15.92 8 20 C18.56 20 29.12 20 40 20 C40 16.04 40 12.08 40 8 C41.61205 4.66075358 42.8756525 2.88341589 45.75 0.625 C50.37300801 -0.65916889 54.41294026 -0.6348239 58.8125 1.125 C61.72788017 3.62389729 62.75571177 5.33262415 64 9 C64 12.63 64 16.26 64 20 C74.56 20 85.12 20 96 20 C96 16.7 96 13.4 96 10 C97.24582994 5.6395952 98.0360281 3.67916202 101.75 1.0625 C105.50601988 -0.16542958 108.07126951 -0.49109131 112 0 C116.36969581 2.30851854 117.75661434 3.51322869 120 8 C120 11.96 120 15.92 120 20 C129.24 20 138.48 20 148 20 C148 15.71 148 11.42 148 7 C150.424827 3.06784811 151.63925343 1.45358219 156 0 C161.01103128 -0.3711875 163.99128499 -0.11788946 168 3 C170.40698566 5.49356788 170.97517688 6.72595272 171.29296875 10.234375 C171.25816406 11.39453125 171.22335937 12.5546875 171.1875 13.75 C171.14689453 15.50570312 171.14689453 15.50570312 171.10546875 17.296875 C171.07066406 18.18890625 171.03585937 19.0809375 171 20 C172.7468811 19.97643433 172.7468811 19.97643433 174.52905273 19.95239258 C178.88445005 19.897748 183.23981756 19.86352524 187.59545898 19.83520508 C189.4740917 19.82019667 191.35268984 19.79978348 193.23120117 19.77368164 C195.94458593 19.73694614 198.6575041 19.72019393 201.37109375 19.70703125 C202.61384315 19.68380547 202.61384315 19.68380547 203.88169861 19.66011047 C212.73975558 19.65760198 219.79129105 21.92747643 226.2734375 28.03515625 C231.34533088 33.80701682 233.11843895 40.32448185 233.13371277 47.90896606 C233.13797775 48.87071747 233.14224274 49.83246887 233.14663696 50.82336426 C233.14618378 51.86665894 233.14573059 52.90995361 233.14526367 53.98486328 C233.15030159 55.64659073 233.15030159 55.64659073 233.15544128 57.34188843 C233.16493576 61.00137453 233.16689335 64.66081485 233.16796875 68.3203125 C233.17118132 70.86188781 233.17454539 73.40346293 233.17805481 75.94503784 C233.18404156 81.26951603 233.18593789 86.59397713 233.18530273 91.91845703 C233.18470095 98.07435764 233.19527586 104.2301709 233.2110464 110.38604939 C233.22568492 116.31113947 233.22929123 122.23620276 233.22869301 128.1613121 C233.2298759 130.68197869 233.23431485 133.20264587 233.24202538 135.72330093 C233.25177984 139.24025069 233.24896566 142.75697267 233.24291992 146.27392578 C233.24853943 147.32126892 233.25415894 148.36861206 233.25994873 149.44769287 C233.253657 150.8818605 233.253657 150.8818605 233.24723816 152.34500122 C233.24778293 153.17641695 233.24832769 154.00783268 233.24888897 154.86444283 C233 157 233 157 231 160 C227.5 160.3125 227.5 160.3125 224 160 C221.5523568 157.5523568 221.74707585 156.91408407 221.73498535 153.55464172 C221.72671219 152.61962326 221.71843903 151.6846048 221.70991516 150.72125244 C221.71089706 149.69215759 221.71187897 148.66306274 221.71289062 147.6027832 C221.70605759 146.5213353 221.69922455 145.43988739 221.69218445 144.32566833 C221.67856651 141.97065127 221.66953252 139.61560437 221.66447449 137.26055336 C221.65620929 133.53241729 221.63572425 129.80452901 221.61193848 126.07646179 C221.56361166 118.15517738 221.53067293 110.2338665 221.5 102.3125 C221.46447183 93.15181319 221.42235876 83.99122448 221.36405945 74.83064842 C221.34400378 71.1597319 221.33567206 67.48890726 221.32775879 63.81794739 C221.31478211 61.56002471 221.30126117 59.30210507 221.28710938 57.04418945 C221.28809128 56.02521576 221.28907318 55.00624207 221.29008484 53.95639038 C221.2317394 47.26285779 221.08025809 41.60032261 216.75 36.1875 C211.38385393 31.91897472 205.89958319 31.68357654 199.3203125 31.5859375 C198.50754852 31.56657135 197.69478455 31.5472052 196.85739136 31.5272522 C194.28003188 31.46782117 191.70262685 31.42121819 189.125 31.375 C187.36977298 31.33678657 185.61456403 31.29773291 183.859375 31.2578125 C179.57306476 31.16215001 175.28666681 31.07798551 171 31 C171.02682861 31.96639404 171.05365723 32.93278809 171.08129883 33.9284668 C171.11259888 35.82592651 171.11259888 35.82592651 171.14453125 37.76171875 C171.17135986 39.01686279 171.19818848 40.27200684 171.22583008 41.56518555 C171.00608818 44.90740047 170.77729283 46.28511922 168.6875 48.8125 C164.51771066 52.20651458 161.2668346 52.36322997 156 52 C151.94655729 50.15752604 150.77458272 48.69944363 148 45 C148 40.38 148 35.76 148 31 C138.76 31 129.52 31 120 31 C120 35.29 120 39.58 120 44 C116.3190184 50.13496933 116.3190184 50.13496933 112 52 C106.82529946 52.56451279 103.28491605 52.01891813 99 49 C95.05535918 42.68857469 96 39.13712741 96 31 C85.44 31 74.88 31 64 31 C64 34.96 64 38.92 64 43 C62.75947331 46.72158007 61.75761336 48.35061712 58.8125 50.875 C55.13710961 52.34515615 51.86754897 52.6887416 48 52 C43.58479377 49.71063381 42.25475426 48.50950852 40 44 C40 39.71 40 35.42 40 31 C29.44 31 18.88 31 8 31 C8 35.29 8 39.58 8 44 C4.3190184 50.13496933 4.3190184 50.13496933 0 52 C-5.17470054 52.56451279 -8.71508395 52.01891813 -13 49 C-15.75631936 44.58988903 -16.13958641 41.42245211 -16.0703125 36.25 C-16.06016113 35.26515625 -16.05000977 34.2803125 -16.03955078 33.265625 C-16.02649902 32.51796875 -16.01344727 31.7703125 -16 31 C-20.12650768 31.0694143 -24.25216574 31.15763188 -28.37792969 31.26245117 C-29.7782107 31.29547667 -31.17861769 31.32357655 -32.57910156 31.34643555 C-45.60274955 31.2046127 -45.60274955 31.2046127 -56.4375 37.5 C-58.87605003 41.40168005 -59.12611769 44.30787177 -59.13142776 48.81846333 C-59.13526891 50.03992473 -59.13911005 51.26138613 -59.1430676 52.51986152 C-59.14228731 53.88248851 -59.14140852 55.24511544 -59.14044189 56.60774231 C-59.14302484 58.04973626 -59.14603781 59.49172949 -59.1494453 60.93372172 C-59.15752677 64.90591441 -59.1593055 68.87808905 -59.16004276 72.85028899 C-59.16189132 77.13055955 -59.16943763 81.41082069 -59.17617798 85.69108582 C-59.18976976 95.05464748 -59.19578727 104.41820487 -59.20018864 113.78177476 C-59.20294951 119.6260851 -59.20718657 125.47039377 -59.21169281 131.31470299 C-59.22388635 147.48930794 -59.23418565 163.66391156 -59.2375679 179.838521 C-59.23778747 180.87407021 -59.23800703 181.90961941 -59.23823325 182.97654889 C-59.23845153 184.01460363 -59.23866981 185.05265837 -59.2388947 186.12216932 C-59.23933817 188.22573332 -59.23978473 190.32929732 -59.24023438 192.43286133 C-59.2404558 193.47630613 -59.24067723 194.51975093 -59.24090537 195.59481528 C-59.24485442 212.50702427 -59.26231133 229.4191902 -59.2855939 246.33138255 C-59.30929345 263.68623867 -59.32176911 281.04107316 -59.32293582 298.39594573 C-59.32385334 308.14356848 -59.32962511 317.89113513 -59.34775543 327.63874245 C-59.36313755 335.93816835 -59.36828805 344.23752081 -59.36001733 352.53695825 C-59.35610417 356.7726101 -59.35707277 361.00811397 -59.37107468 365.24374771 C-59.38377374 369.12066475 -59.38265146 372.99732198 -59.37048396 376.87423845 C-59.36852001 378.27734427 -59.37163752 379.68046825 -59.38032833 381.08354852 C-59.39139212 382.99034005 -59.38215859 384.89721702 -59.3719368 386.80401325 C-59.37253389 387.86332564 -59.37313097 388.92263802 -59.37374616 390.01405078 C-58.77737616 394.77859619 -57.02555996 398.02703286 -53.5625 401.3125 C-49.83212095 403.76909108 -46.75320016 404.12449416 -42.34355736 404.13307858 C-41.40675994 404.13731962 -40.46996253 404.14156067 -39.50477731 404.14593023 C-37.96597593 404.14535103 -37.96597593 404.14535103 -36.39608765 404.14476013 C-35.3037726 404.14828698 -34.21145755 404.15181382 -33.08604205 404.15544754 C-29.41331415 404.16615154 -25.74061217 404.16981843 -22.06787109 404.17358398 C-19.44001658 404.17988774 -16.81216314 404.18665334 -14.18431091 404.19384766 C-8.51984368 404.20878157 -2.85537776 404.22032798 2.8091011 404.22979546 C11.00118487 404.24366638 19.19323778 404.26485296 27.38529937 404.28822399 C40.67905951 404.32613575 53.97282521 404.36110509 67.26660156 404.39282227 C68.46016284 404.395673 68.46016284 404.395673 69.67783646 404.39858133 C80.97890923 404.42543354 92.27998635 404.44930352 103.5810682 404.47196633 C104.77553905 404.47436229 104.77553905 404.47436229 105.99414062 404.47680664 C106.78948674 404.47840011 107.58483286 404.47999357 108.40428038 404.48163532 C121.65044492 404.50837248 134.89657638 404.5427563 148.14270532 404.58346039 C156.3178261 404.60827294 164.49291124 404.62657856 172.66806374 404.636616 C178.92466834 404.64485835 185.1812035 404.66333159 191.43777275 404.68567657 C194.01056968 404.6931821 196.58337922 404.69723493 199.15618706 404.69767189 C202.65424203 404.6987462 206.15204301 404.71191956 209.65005493 404.72825623 C211.19554848 404.72433094 211.19554848 404.72433094 212.77226412 404.72032636 C213.70384604 404.72717516 214.63542796 404.73402395 215.59523964 404.74108028 C216.40339453 404.74281653 217.21154943 404.74455278 218.04419386 404.74634165 C220 405 220 405 222 407 C222.3125 410.5 222.3125 410.5 222 414 C218.83126263 416.11249158 218.07893397 416.2509751 214.45771694 416.25726891 C213.52087738 416.2637178 212.58403781 416.27016669 211.61880916 416.276811 C210.58770379 416.2737138 209.55659842 416.2706166 208.49424744 416.26742554 C207.40026424 416.27195665 206.30628103 416.27648776 205.17914683 416.28115618 C201.49430753 416.29386879 197.80961473 416.29217537 194.12475586 416.29052734 C191.49032028 416.29650848 188.85589638 416.30325607 186.22146606 416.31088257 C179.79557524 416.32751125 173.36972111 416.33299304 166.94381057 416.33410732 C161.71846629 416.33505734 156.49313411 416.33916533 151.26779366 416.34550858 C136.45037344 416.36312955 121.63298222 416.37234663 106.81555145 416.37084763 C106.01637309 416.37076772 105.21719472 416.3706878 104.39379883 416.37060547 C103.19356518 416.37048283 103.19356518 416.37048283 101.96908439 416.37035771 C89.01382844 416.36954556 76.05868896 416.38866297 63.10346668 416.4168822 C49.79854912 416.44563404 36.49368829 416.45942109 23.18873888 416.45769465 C15.72021195 416.45703132 8.25180696 416.46249775 0.78330803 416.48405075 C-5.57891529 416.50229331 -11.94096146 416.50658513 -18.30319966 416.4930319 C-21.54705385 416.4865163 -24.79049916 416.48852089 -28.03433418 416.5037384 C-31.55831185 416.51919682 -35.08140306 416.50987731 -38.60536194 416.49447632 C-39.62085226 416.50476344 -40.63634257 416.51505057 -41.68260533 416.52564943 C-51.08342136 416.43511919 -58.68751718 413.96088119 -65.4296875 407.26953125 C-71.14335428 399.01171931 -71.57564017 391.35173765 -71.50793457 381.50782776 C-71.51254881 380.04287677 -71.51890523 378.57793041 -71.52684355 377.11299366 C-71.54348862 373.10494809 -71.53531264 369.09728518 -71.52289867 365.08923852 C-71.51383057 360.75989572 -71.52782668 356.43061769 -71.53881836 352.10128784 C-71.55658986 343.62677431 -71.55276957 335.15240262 -71.5411678 326.67788357 C-71.53212776 319.78886976 -71.53091194 312.89989565 -71.53526306 306.01087761 C-71.53587599 305.02973101 -71.53648893 304.04858441 -71.53712043 303.03770609 C-71.53839936 301.0444022 -71.53969621 299.05109831 -71.5410108 297.05779444 C-71.55241274 278.37323019 -71.53930925 259.68874449 -71.51780933 241.00419312 C-71.4999415 224.98021375 -71.50304062 208.95635032 -71.52148438 192.93237305 C-71.54290271 174.31541296 -71.5513112 155.6985217 -71.53903532 137.08155102 C-71.53776115 135.09534674 -71.53650367 133.10914245 -71.53526306 131.12293816 C-71.53433741 129.65714245 -71.53433741 129.65714245 -71.53339306 128.16173472 C-71.52994284 121.28339492 -71.53576148 114.40509885 -71.54518127 107.52676582 C-71.55641345 99.14082798 -71.5533357 90.75503986 -71.5320583 82.36911912 C-71.52156385 78.0923962 -71.51739852 73.81592267 -71.53065491 69.53920174 C-71.54261825 65.62028445 -71.53595189 61.70184655 -71.5147447 57.78297245 C-71.51029521 56.36921497 -71.51250758 54.95541657 -71.52224785 53.54168565 C-71.58627168 43.47268876 -70.66012355 34.99491754 -63.9375 27.125 C-54.81736022 18.9798046 -43.2881367 19.48701924 -31.8125 19.75 C-30.2728099 19.77011183 -28.7330942 19.78835426 -27.19335938 19.8046875 C-23.46169792 19.84827539 -19.73101842 19.91703884 -16 20 C-16.01305176 19.32380615 -16.02610352 18.6476123 -16.03955078 17.95092773 C-16.04970215 17.05833252 -16.05985352 16.1657373 -16.0703125 15.24609375 C-16.08336426 14.3636499 -16.09641602 13.48120605 -16.10986328 12.57202148 C-15.94047827 8.60653022 -15.08335197 6.40280822 -13 3 C-8.72427173 -0.01244492 -5.16449529 -0.64556191 0 0 Z " fill="#000000" transform="translate(103,48)"/>
<path d="M0 0 C7.27115198 4.27433893 12.07520733 9.22838977 14.90625 17.2578125 C16.50513354 23.78658697 16.44839169 30.66280617 13.8203125 36.9140625 C12.17710201 39.55748808 10.15040681 41.62779031 8 43.875 C4.96670698 47.04858887 3.15102827 48.97540967 2.6875 53.375 C1.83781261 59.4753197 -3.06520173 64.10696388 -7.65164089 67.92232323 C-9.85556244 69.1751488 -11.68862786 69.36985405 -14.19874573 69.67642212 C-19.94087891 70.7462788 -22.70208321 73.18063251 -26.57006836 77.39990234 C-27.21090866 78.06366882 -27.85174896 78.7274353 -28.51200867 79.41131592 C-29.89468927 80.84762875 -31.26818657 82.29282806 -32.6332531 83.74589157 C-34.81648808 86.0650183 -37.02770695 88.35388481 -39.24867249 90.63687134 C-45.55584407 97.12912954 -51.81664452 103.66482344 -58.04272461 110.23486328 C-91.04179418 144.99142277 -91.04179418 144.99142277 -113.77792358 152.08239746 C-117.70404547 153.34471757 -121.42731637 155.00521694 -125.1875 156.6875 C-129.82978882 158.6386069 -133.3900632 159.27959738 -138.4375 158.9375 C-141.9761994 157.28610695 -143.24820153 156.22144771 -145.4375 152.9375 C-146.44135144 145.99030067 -144.93946791 140.34377084 -142.078125 134.078125 C-141.73247498 133.28525085 -141.38682495 132.49237671 -141.03070068 131.67547607 C-140.30277181 130.01474378 -139.5661807 128.35778331 -138.82128906 126.70458984 C-137.68741328 124.18730748 -136.57989445 121.65970456 -135.4765625 119.12890625 C-134.76191696 117.50715055 -134.04582013 115.88603344 -133.328125 114.265625 C-132.83412201 113.14513763 -132.83412201 113.14513763 -132.33013916 112.00201416 C-132.01010925 111.29397644 -131.69007935 110.58593872 -131.36035156 109.85644531 C-131.08499573 109.24263 -130.80963989 108.6288147 -130.52593994 107.99639893 C-127.44515988 102.16877857 -123.49339856 97.70383831 -118.86474609 93.10595703 C-118.21388535 92.45159164 -117.5630246 91.79722626 -116.8924408 91.12303162 C-114.75358825 88.97542161 -112.6075576 86.83515644 -110.4609375 84.6953125 C-108.96899645 83.20202374 -107.47735236 81.70843823 -105.98599243 80.21456909 C-102.86727482 77.09290889 -99.74498279 73.97488052 -96.62011719 70.859375 C-92.60703408 66.85772546 -88.6030488 62.84711147 -84.60165977 58.83377266 C-81.52731299 55.7522177 -78.44824207 52.67541879 -75.36769485 49.60006332 C-73.8885766 48.12228241 -72.41095132 46.64300565 -70.9348259 45.16223526 C-68.87849251 43.10084954 -66.81590435 41.04593888 -64.75146484 38.99267578 C-64.13844009 38.37560257 -63.52541534 37.75852936 -62.89381409 37.12275696 C-58.66603445 32.9375 -58.66603445 32.9375 -56.4375 32.9375 C-56.499375 31.679375 -56.56125 30.42125 -56.625 29.125 C-55.94737769 22.91837251 -51.82008236 19.28755426 -47.4140625 15.3046875 C-44.22970665 12.77224702 -41.41328333 11.32742542 -37.625 9.9609375 C-34.87439794 8.67404868 -33.02577325 6.94620503 -30.8125 4.875 C-22.23965534 -3.0214281 -10.8419328 -5.02309731 0 0 Z M-23.4375 12.9375 C-24.4275 14.2575 -25.4175 15.5775 -26.4375 16.9375 C-19.1775 24.1975 -11.9175 31.4575 -4.4375 38.9375 C0.07944491 36.67902755 1.20887372 35.32011445 3.5625 30.9375 C5.00718433 26.48382346 4.92769743 23.03287588 3 18.75 C0.29410899 13.97710892 -3.15395552 10.69868149 -8.4375 8.9375 C-14.89576265 8.39931145 -18.12919854 9.19046368 -23.4375 12.9375 Z M-39.28515625 23.6875 C-40.38150391 24.80125 -40.38150391 24.80125 -41.5 25.9375 C-42.60021484 27.05125 -42.60021484 27.05125 -43.72265625 28.1875 C-44.57150391 29.05375 -44.57150391 29.05375 -45.4375 29.9375 C-40.05109076 36.49127097 -34.07864873 42.40996635 -28.0625 48.375 C-27.02971405 49.40275983 -25.99716009 50.43075285 -24.96484375 51.45898438 C-22.45839713 53.95451598 -19.9488292 56.44688082 -17.4375 58.9375 C-13.67261958 57.21595212 -11.28686103 54.94515886 -8.4375 51.9375 C-10.07623844 47.75332597 -13.15044346 44.95352195 -16.28515625 41.859375 C-16.85705185 41.28793762 -17.42894745 40.71650024 -18.01817322 40.12774658 C-19.22369786 38.92523552 -20.43164454 37.72514828 -21.6418457 36.52734375 C-23.50207948 34.68544101 -25.35411217 32.83558634 -27.20507812 30.984375 C-28.37713188 29.81723386 -29.54964207 28.65055087 -30.72265625 27.484375 C-31.27993912 26.92820496 -31.83722198 26.37203491 -32.41139221 25.79901123 C-35.62727397 21.74778045 -35.62727397 21.74778045 -39.28515625 23.6875 Z M-55.55747986 46.80863953 C-56.12068436 47.37903458 -56.68388885 47.94942963 -57.26416016 48.53710938 C-57.85942001 49.13207718 -58.45467987 49.72704498 -59.06797791 50.34004211 C-61.04228097 52.31574301 -63.0093983 54.29844303 -64.9765625 56.28125 C-66.34090357 57.64931958 -67.7056857 59.01694944 -69.07089233 60.38415527 C-72.66906089 63.98997301 -76.26118417 67.60175583 -79.85211182 71.21478271 C-83.51498661 74.89808829 -87.18350473 78.57576345 -90.8515625 82.25390625 C-98.05243241 89.47624873 -105.24693309 96.70490082 -112.4375 103.9375 C-109.92891808 106.48551274 -107.49610432 108.70590221 -104.5625 110.75 C-98.94831606 114.8900686 -94.78111706 119.8075354 -91.4375 125.9375 C-84.41444971 120.19661114 -78.1140639 113.74056544 -71.72265625 107.3203125 C-70.49976684 106.09555511 -69.2766543 104.87102047 -68.05332947 103.646698 C-64.85364044 100.44321366 -61.65696752 97.23673634 -58.4609375 94.02960205 C-55.191288 90.74967384 -51.9187616 87.47261874 -48.64648438 84.1953125 C-42.24068881 77.77883235 -35.83807951 71.359183 -29.4375 64.9375 C-31.04511078 61.54179385 -32.83588762 59.28170994 -35.5 56.609375 C-36.29664063 55.81015625 -37.09328125 55.0109375 -37.9140625 54.1875 C-38.74679687 53.3625 -39.57953125 52.5375 -40.4375 51.6875 C-41.27023437 50.84703125 -42.10296875 50.0065625 -42.9609375 49.140625 C-43.75757813 48.3465625 -44.55421875 47.5525 -45.375 46.734375 C-46.10589844 46.00573242 -46.83679688 45.27708984 -47.58984375 44.52636719 C-51.23561251 41.39123728 -52.61701534 43.88384188 -55.55747986 46.80863953 Z M-120.4375 113.9375 C-121.33145329 115.84540032 -122.20209334 117.76423806 -123.0625 119.6875 C-123.54976563 120.75484375 -124.03703125 121.8221875 -124.5390625 122.921875 C-125.6767377 125.77731404 -125.6767377 125.77731404 -124.875 128.03125 C-123.03518909 130.47099924 -121.00434964 132.55827463 -118.8125 134.6875 C-117.99523437 135.48671875 -117.17796875 136.2859375 -116.3359375 137.109375 C-115.70945312 137.71265625 -115.08296875 138.3159375 -114.4375 138.9375 C-112.28851768 138.1544216 -110.14337905 137.36078757 -108 136.5625 C-106.20755859 135.90121094 -106.20755859 135.90121094 -104.37890625 135.2265625 C-101.33553102 134.26664764 -101.33553102 134.26664764 -100.4375 131.9375 C-105.78438517 123.48273783 -110.93281385 117.48942423 -120.4375 113.9375 Z " fill="#000000" transform="translate(464.4375,174.0625)"/>
<path d="M0 0 C2 2 2 2 2.3125 4.9375 C2 8 2 8 0.88671875 9.7109375 C-1.96819409 11.66149907 -4.11440136 11.05826799 -7.5 10.6875 C-32.11213861 8.41793804 -56.31847111 13.50256611 -76.1875 28.8125 C-77.8106873 30.18616822 -79.4148245 31.58263624 -81 33 C-82.24910156 34.10794922 -82.24910156 34.10794922 -83.5234375 35.23828125 C-97.38794383 48.2709172 -105.61658704 65.36597934 -109 84 C-109.13148438 84.70382812 -109.26296875 85.40765625 -109.3984375 86.1328125 C-112.89685013 108.73066708 -106.16316872 133.44190988 -93 152 C-89.63173204 156.29594723 -85.87844212 160.16626614 -82 164 C-81.27039063 164.73992187 -80.54078125 165.47984375 -79.7890625 166.2421875 C-63.30422597 181.99164099 -40.99198404 188.56739641 -18.67602539 188.41723633 C2.0724988 187.87921734 20.1121457 180.22800425 36 167 C36.98613281 166.22398437 37.97226562 165.44796875 38.98828125 164.6484375 C42.290065 161.88483229 44.88577736 158.71869894 47.5 155.3125 C48.21772583 154.38123291 48.21772583 154.38123291 48.94995117 153.43115234 C62.25923904 135.94023775 69.96919926 114.19824625 68 92 C67.1950894 86.29956113 66.07769148 80.65364848 65 75 C64.45327837 71.91406014 64.10836997 69.14272915 64 66 C65.81894918 63.68110573 66.53812479 63.06928128 69.5 62.625 C72.5762734 63.08644101 73.12241746 63.55119526 75 66 C75.83043441 68.41398692 76.51722098 70.71991717 77.125 73.1875 C77.62386719 75.09595703 77.62386719 75.09595703 78.1328125 77.04296875 C84.25123765 103.35545139 78.15867703 130.33836055 64.48046875 153.17578125 C50.38051185 175.57447329 27.40307584 192.05277349 1.75 198.4375 C-25.41062821 204.38143968 -52.80630388 199.43308068 -76.1875 184.8125 C-87.83062169 177.1790175 -97.27289546 167.57544597 -105 156 C-105.92039063 154.63681641 -105.92039063 154.63681641 -106.859375 153.24609375 C-121.42794833 130.07174811 -125.59244677 101.84014148 -119.90258789 75.25024414 C-113.56087378 48.58123649 -97.41127803 27.72164366 -74.65625 12.80859375 C-53.36093475 -0.06139609 -24.50138971 -6.9757911 0 0 Z " fill="#000000" transform="translate(335,236)"/>
<path d="M0 0 C1.25941406 -0.01417969 2.51882813 -0.02835937 3.81640625 -0.04296875 C7.43127429 0.18710376 10.13054528 0.72583573 13.4375 2.1875 C15.4375 5.1875 15.4375 5.1875 15.1875 7.75 C14.4375 10.1875 14.4375 10.1875 12.4375 12.1875 C9.94680832 12.28260994 7.54740796 12.27305821 5.0625 12.1875 C-13.61582185 11.913802 -28.89184202 17.83544925 -42.87890625 30.2421875 C-54.37094343 42.16152156 -60.54223055 58.76924926 -60.5625 75.1875 C-59.53633198 91.49424265 -53.78395273 105.73049918 -41.75 117 C-27.27015181 128.82143856 -10.7229211 132.27495037 7.4375 131.1875 C23.01700751 129.09128348 36.9142799 120.31822972 46.84765625 108.3046875 C56.24032526 95.79651402 59.75180332 83.02495183 59.1796875 67.52734375 C59.46285789 63.8590001 60.15256853 62.04632123 62.4375 59.1875 C65.4375 58.625 65.4375 58.625 68.4375 59.1875 C71.16267531 61.68183693 71.44366295 63.24102325 71.87109375 66.953125 C71.8952787 68.44772157 71.89520445 69.94284432 71.875 71.4375 C71.86597656 72.23454346 71.85695313 73.03158691 71.84765625 73.8527832 C71.26961616 94.10626424 62.73694373 110.22650464 48.4375 124.1875 C47.79296875 124.85265625 47.1484375 125.5178125 46.484375 126.203125 C32.59592731 139.60849625 13.96591174 143.84136567 -4.71630859 143.65625 C-25.10292261 143.03818117 -41.66329716 134.82044658 -55.5625 120.1875 C-67.72426071 106.70429567 -72.98151005 89.56038427 -72.77734375 71.59375 C-71.40720207 49.87077647 -62.1247593 31.87625785 -46.2578125 17.03125 C-33.12719745 5.83793881 -17.17138011 0.08805836 0 0 Z " fill="#000000" transform="translate(314.5625,262.8125)"/>
<path d="M0 0 C0.95769287 -0.00619858 1.91538574 -0.01239716 2.90209961 -0.01878357 C4.92267848 -0.02587321 6.94331587 -0.0227227 8.96386719 -0.01000977 C12.05252653 0.00386146 15.13815863 -0.03023397 18.2265625 -0.06835938 C20.19270907 -0.06931057 22.15885943 -0.06745174 24.125 -0.0625 C25.50643188 -0.08238731 25.50643188 -0.08238731 26.91577148 -0.10267639 C31.15771124 -0.04117143 33.49007167 0.2082307 37.14648438 2.49609375 C39.84461921 6.81971042 39.7471833 10.3163276 39.65625 15.3203125 C39.65629028 16.258181 39.65633057 17.1960495 39.65637207 18.16233826 C39.65102231 20.14011354 39.63346286 22.11788866 39.60449219 24.09545898 C39.56259225 27.12224246 39.56342899 30.14680316 39.5703125 33.17382812 C39.55982108 35.09767171 39.54688324 37.02150383 39.53125 38.9453125 C39.53104858 39.8495546 39.53084717 40.75379669 39.53063965 41.68544006 C39.41349668 47.90228426 39.41349668 47.90228426 37.72070312 51.10522461 C35.00436129 53.49882088 32.41393006 53.69484861 28.94580078 53.72753906 C28.12129425 53.73714661 27.29678772 53.74675415 26.44729614 53.75665283 C25.11600174 53.76302765 25.11600174 53.76302765 23.7578125 53.76953125 C22.84168182 53.77523132 21.92555115 53.7809314 20.98165894 53.7868042 C19.04328566 53.79624952 17.10489636 53.80278632 15.16650391 53.80664062 C12.20576898 53.81634636 9.24572827 53.84737411 6.28515625 53.87890625 C4.40104578 53.88543655 2.51693036 53.89068691 0.6328125 53.89453125 C-0.69240921 53.91305145 -0.69240921 53.91305145 -2.04440308 53.9319458 C-7.30378134 53.9129476 -11.02785101 53.47605524 -14.9375 49.56640625 C-15.05623698 48.17635004 -15.10752229 46.78042911 -15.13037109 45.38549805 C-15.14643402 44.49755051 -15.16249695 43.60960297 -15.17904663 42.69474792 C-15.22335922 38.62471125 -15.26456865 34.55484051 -15.28759766 30.48461914 C-15.30415867 28.33607147 -15.33145045 26.18757892 -15.36962891 24.03930664 C-15.42432081 20.94778753 -15.44626076 17.85756237 -15.4609375 14.765625 C-15.48360687 13.80508713 -15.50627625 12.84454926 -15.52963257 11.85490417 C-15.50895561 5.34425733 -15.50895561 5.34425733 -13.02587891 1.96435547 C-8.64068283 -0.02059574 -4.76589578 -0.02566709 0 0 Z M22.25 15.12890625 C18.93564509 18.66881272 15.50283374 21.87698142 11.8125 25.01953125 C9.90290633 26.64831444 9.90290633 26.64831444 7.8125 29.06640625 C6.0625 30.56640625 6.0625 30.56640625 4.125 30.56640625 C2.0625 29.56640625 2.0625 29.56640625 -0.375 27.44140625 C-2.78026989 25.25912899 -2.78026989 25.25912899 -5.6875 25.75390625 C-7.87726633 26.36453687 -7.87726633 26.36453687 -8.9375 27.56640625 C-9.38157372 29.93126317 -9.38157372 29.93126317 -8.9375 32.56640625 C-7.09695906 34.83251606 -7.09695906 34.83251606 -4.625 36.75390625 C-3.42423828 37.76517578 -3.42423828 37.76517578 -2.19921875 38.796875 C1.18544962 41.68753749 1.18544962 41.68753749 5.359375 42.53515625 C9.09307612 41.19706683 11.5240544 38.78238705 14.3125 36.06640625 C14.87952637 35.52830322 15.44655273 34.9902002 16.03076172 34.43579102 C20.79106901 29.89687772 25.4567915 25.26183634 30.0625 20.56640625 C30.64257812 20.04433594 31.22265625 19.52226562 31.8203125 18.984375 C32.23023438 18.51644531 32.64015625 18.04851562 33.0625 17.56640625 C32.82044651 14.2482164 32.82044651 14.2482164 31.0625 11.56640625 C26.68449913 11.02927337 25.155012 11.90587188 22.25 15.12890625 Z " fill="#000000" transform="translate(94.9375,345.43359375)"/>
<path d="M0 0 C0.95769287 -0.00619858 1.91538574 -0.01239716 2.90209961 -0.01878357 C4.92267848 -0.02587321 6.94331587 -0.0227227 8.96386719 -0.01000977 C12.05252653 0.00386146 15.13815863 -0.03023397 18.2265625 -0.06835938 C20.19270907 -0.06931057 22.15885943 -0.06745174 24.125 -0.0625 C25.50643188 -0.08238731 25.50643188 -0.08238731 26.91577148 -0.10267639 C31.15771124 -0.04117143 33.49007167 0.2082307 37.14648438 2.49609375 C39.84461921 6.81971042 39.7471833 10.3163276 39.65625 15.3203125 C39.65629028 16.258181 39.65633057 17.1960495 39.65637207 18.16233826 C39.65102231 20.14011354 39.63346286 22.11788866 39.60449219 24.09545898 C39.56259225 27.12224246 39.56342899 30.14680316 39.5703125 33.17382812 C39.55982108 35.09767171 39.54688324 37.02150383 39.53125 38.9453125 C39.53104858 39.8495546 39.53084717 40.75379669 39.53063965 41.68544006 C39.41349668 47.90228426 39.41349668 47.90228426 37.72070312 51.10522461 C35.00436129 53.49882088 32.41393006 53.69484861 28.94580078 53.72753906 C28.12129425 53.73714661 27.29678772 53.74675415 26.44729614 53.75665283 C25.11600174 53.76302765 25.11600174 53.76302765 23.7578125 53.76953125 C22.84168182 53.77523132 21.92555115 53.7809314 20.98165894 53.7868042 C19.04328566 53.79624952 17.10489636 53.80278632 15.16650391 53.80664062 C12.20576898 53.81634636 9.24572827 53.84737411 6.28515625 53.87890625 C4.40104578 53.88543655 2.51693036 53.89068691 0.6328125 53.89453125 C-0.69240921 53.91305145 -0.69240921 53.91305145 -2.04440308 53.9319458 C-7.30378134 53.9129476 -11.02785101 53.47605524 -14.9375 49.56640625 C-15.05623698 48.17635004 -15.10752229 46.78042911 -15.13037109 45.38549805 C-15.14643402 44.49755051 -15.16249695 43.60960297 -15.17904663 42.69474792 C-15.22335922 38.62471125 -15.26456865 34.55484051 -15.28759766 30.48461914 C-15.30415867 28.33607147 -15.33145045 26.18757892 -15.36962891 24.03930664 C-15.42432081 20.94778753 -15.44626076 17.85756237 -15.4609375 14.765625 C-15.48360687 13.80508713 -15.50627625 12.84454926 -15.52963257 11.85490417 C-15.50895561 5.34425733 -15.50895561 5.34425733 -13.02587891 1.96435547 C-8.64068283 -0.02059574 -4.76589578 -0.02566709 0 0 Z M22.25 15.12890625 C18.93564509 18.66881272 15.50283374 21.87698142 11.8125 25.01953125 C9.90290633 26.64831444 9.90290633 26.64831444 7.8125 29.06640625 C6.0625 30.56640625 6.0625 30.56640625 4.125 30.56640625 C2.0625 29.56640625 2.0625 29.56640625 -0.375 27.44140625 C-2.78026989 25.25912899 -2.78026989 25.25912899 -5.6875 25.75390625 C-7.87726633 26.36453687 -7.87726633 26.36453687 -8.9375 27.56640625 C-9.38157372 29.93126317 -9.38157372 29.93126317 -8.9375 32.56640625 C-7.09695906 34.83251606 -7.09695906 34.83251606 -4.625 36.75390625 C-3.42423828 37.76517578 -3.42423828 37.76517578 -2.19921875 38.796875 C1.19784917 41.70572819 1.19784917 41.70572819 5.39453125 42.5 C8.89445425 41.27528317 11.14085689 39.16313549 13.75 36.62890625 C14.26747803 36.14035156 14.78495605 35.65179688 15.31811523 35.1484375 C20.33104179 30.387806 25.21598486 25.4956892 30.0625 20.56640625 C30.65417969 20.03273438 31.24585938 19.4990625 31.85546875 18.94921875 C32.25378906 18.49289062 32.65210938 18.0365625 33.0625 17.56640625 C32.82044651 14.2482164 32.82044651 14.2482164 31.0625 11.56640625 C26.68449913 11.02927337 25.155012 11.90587188 22.25 15.12890625 Z " fill="#000000" transform="translate(94.9375,245.43359375)"/>
<path d="M0 0 C1.00587158 -0.0038269 2.01174316 -0.00765381 3.0480957 -0.01159668 C5.17302451 -0.01431651 7.29798676 -0.00695041 9.42285156 0.00976562 C12.67588932 0.03117359 15.92671845 0.00996568 19.1796875 -0.015625 C21.24479654 -0.01298174 23.30990421 -0.00785679 25.375 0 C26.34800049 -0.00809692 27.32100098 -0.01619385 28.32348633 -0.02453613 C32.16245727 0.02878764 34.89350686 0.10070024 38.29882812 1.94726562 C40.47768051 6.00158588 40.25825818 9.87204801 40.21875 14.40625 C40.2225769 15.36772949 40.22640381 16.32920898 40.23034668 17.31982422 C40.23306602 19.3505966 40.22570329 21.38140399 40.20898438 23.41210938 C40.18757525 26.5203257 40.20878546 29.62623056 40.234375 32.734375 C40.23173173 34.70833843 40.22660676 36.68230043 40.21875 38.65625 C40.22684692 39.58550293 40.23494385 40.51475586 40.24328613 41.47216797 C40.18915737 45.19719546 40.07791602 47.80477969 38.29882812 51.11523438 C34.12544132 53.37829005 30.04843063 53.10139043 25.375 53.0625 C24.36912842 53.0663269 23.36325684 53.07015381 22.3269043 53.07409668 C20.20197549 53.07681651 18.07701324 53.06945041 15.95214844 53.05273438 C12.69911068 53.03132641 9.44828155 53.05253432 6.1953125 53.078125 C4.13020346 53.07548174 2.06509579 53.07035679 0 53.0625 C-0.97300049 53.07059692 -1.94600098 53.07869385 -2.94848633 53.08703613 C-6.78745727 53.03371236 -9.51850686 52.96179976 -12.92382812 51.11523438 C-15.10268051 47.06091412 -14.88325818 43.19045199 -14.84375 38.65625 C-14.8475769 37.69477051 -14.85140381 36.73329102 -14.85534668 35.74267578 C-14.85806602 33.7119034 -14.85070329 31.68109601 -14.83398438 29.65039062 C-14.81257525 26.5421743 -14.83378546 23.43626944 -14.859375 20.328125 C-14.85673173 18.35416157 -14.85160676 16.38019957 -14.84375 14.40625 C-14.85184692 13.47699707 -14.85994385 12.54774414 -14.86828613 11.59033203 C-14.81415737 7.86530454 -14.70291602 5.25772031 -12.92382812 1.94726562 C-8.75044132 -0.31579005 -4.67343063 -0.03889043 0 0 Z M27.6875 10.53125 C25.85192501 12.19550465 24.01853518 13.86200947 22.1875 15.53125 C21.64230713 16.02802246 21.09711426 16.52479492 20.53540039 17.03662109 C16.6577259 20.59025115 12.93021213 24.25398345 9.30859375 28.0703125 C7.6875 29.53125 7.6875 29.53125 4.6875 30.53125 C3.19334373 29.26446533 1.70146278 27.99431369 0.2421875 26.6875 C-1.36598888 25.30502645 -1.36598888 25.30502645 -4.0625 25.09375 C-6.50510663 25.35109552 -6.50510663 25.35109552 -8.3125 27.53125 C-8.99712711 29.88218213 -8.99712711 29.88218213 -8.3125 32.53125 C-6.27203068 34.63146952 -4.44443381 36.24481268 -2.125 37.96875 C-1.54685547 38.43990234 -0.96871094 38.91105469 -0.37304688 39.39648438 C1.54026019 40.92500173 1.54026019 40.92500173 4.6875 42.53125 C8.89280166 41.81387501 11.1412541 39.3801876 14 36.34375 C16.84525301 33.39469008 19.69966551 30.57180342 22.8125 27.90625 C24.10528807 26.78253884 25.3969586 25.65754067 26.6875 24.53125 C27.37714844 23.933125 28.06679687 23.335 28.77734375 22.71875 C32.61674141 19.39083667 32.61674141 19.39083667 33.9375 14.71875 C32.31000265 11.87062963 30.70282607 11.60606784 27.6875 10.53125 Z " fill="#000000" transform="translate(94.3125,146.46875)"/>
<path d="M0 0 C1.16402344 -0.03867187 1.16402344 -0.03867187 2.3515625 -0.078125 C3.01929688 0.03015625 3.68703125 0.1384375 4.375 0.25 C6.375 3.25 6.375 3.25 6.4375 6.25 C5.375 9.25 5.375 9.25 2.375 10.875 C1.046123 11.34609779 -0.2876913 11.80339877 -1.625 12.25 C-12.34576824 16.38353564 -17.47300269 20.96264737 -22.4609375 31.4453125 C-25.68239582 39.2070812 -25.37504373 46.82922967 -22.72265625 54.76171875 C-19.15902063 62.84013828 -13.66695184 67.83217047 -5.625 71.25 C4.15488892 74.91745834 12.03434242 73.45475084 21.375 69.25 C29.42422802 64.84570542 33.59414892 58.43098191 37.39453125 50.2890625 C38.375 48.25 38.375 48.25 39.375 47.25 C42.73210718 46.88509705 44.62122131 46.68466598 47.375 48.75 C48.90700381 52.58000952 47.80931181 55.57011404 46.375 59.25 C40.56348383 71.64929985 32.31237578 78.65071166 19.63671875 83.48828125 C9.74898268 86.8183478 -2.06249805 86.50355438 -11.625 82.25 C-24.09376964 76.03445018 -30.30427173 67.96563876 -35.625 55.25 C-38.77907317 43.63644733 -36.94730208 31.20951306 -31.26953125 20.75390625 C-25.33071632 11.31230503 -17.40675779 4.03732656 -6.58203125 0.6015625 C-4.36580473 0.20343798 -2.25157773 0.04518216 0 0 Z " fill="#000000" transform="translate(307.625,292.75)"/>
<path d="M0 0 C1.14259781 -0.00708481 2.28519562 -0.01416962 3.4624176 -0.02146912 C4.71188171 -0.0189917 5.96134583 -0.01651428 7.24867249 -0.01396179 C8.56771072 -0.01907272 9.88674896 -0.02418365 11.24575806 -0.02944946 C14.86147227 -0.04283737 18.47708194 -0.04341838 22.09281611 -0.04088616 C25.11222791 -0.03981632 28.13161856 -0.04470016 31.15102583 -0.04949158 C38.27473664 -0.06058602 45.39839472 -0.06102452 52.52210999 -0.05497742 C59.86916222 -0.04893659 67.21602301 -0.06125144 74.56304258 -0.08254749 C80.87314033 -0.10016483 87.18317715 -0.10616465 93.49329859 -0.10290974 C97.26108764 -0.10109696 101.02874011 -0.10373247 104.79650688 -0.11762428 C108.33996573 -0.13020028 111.88312616 -0.12826096 115.42658043 -0.11521339 C117.34477389 -0.11172046 119.26297645 -0.12302728 121.18113708 -0.13478088 C122.32655472 -0.12776657 123.47197235 -0.12075226 124.65209961 -0.11352539 C126.1417594 -0.113777 126.1417594 -0.113777 127.66151333 -0.1140337 C130.90629909 0.33167976 132.79609616 1.27785682 135.38954163 3.26069641 C135.95204163 6.26069641 135.95204163 6.26069641 135.38954163 9.26069641 C132.30178134 12.31891547 129.95528033 12.63811793 125.69642639 12.64837646 C123.95511948 12.66323341 123.95511948 12.66323341 122.17863464 12.6783905 C120.27402969 12.67163803 120.27402969 12.67163803 118.33094788 12.66474915 C116.97725358 12.67045274 115.6235641 12.67741697 114.2698822 12.68554688 C110.5963446 12.70349349 106.92304566 12.70230732 103.24947739 12.69660449 C100.18274113 12.6935152 97.11605089 12.69960208 94.04932117 12.70564324 C86.81535836 12.71969138 79.58151364 12.71812442 72.34754944 12.70674133 C64.88340086 12.69525563 57.4196114 12.70934248 49.95551014 12.73613781 C43.54690169 12.75828304 37.13840608 12.76493499 30.72976208 12.7590614 C26.90216662 12.75568825 23.07480146 12.75813047 19.24723816 12.77531242 C15.64870676 12.79076131 12.05070822 12.78684965 8.45219803 12.76800728 C6.50160652 12.76255486 4.5509912 12.77685054 2.60044861 12.79170227 C1.43957733 12.78186813 0.27870605 12.772034 -0.91734314 12.76190186 C-2.43050865 12.76158793 -2.43050865 12.76158793 -3.97424316 12.76126766 C-7.34457503 12.12130047 -8.55608357 10.96456088 -10.61045837 8.26069641 C-10.61045837 5.13569641 -10.61045837 5.13569641 -9.61045837 2.26069641 C-6.45549574 0.11654106 -3.75090467 0.00775651 0 0 Z " fill="#000000" transform="translate(162.61045837402344,166.7393035888672)"/>
<path d="M0 0 C0.94455551 -0.00953201 1.88911102 -0.01906403 2.86228943 -0.02888489 C3.87590042 -0.02797348 4.88951141 -0.02706207 5.93383789 -0.02612305 C7.50567589 -0.03255074 7.50567589 -0.03255074 9.10926819 -0.03910828 C11.3241402 -0.04484808 13.53903105 -0.04535442 15.75390625 -0.04101562 C19.14038289 -0.03785682 22.52598494 -0.06131585 25.91235352 -0.08666992 C28.06534721 -0.08894307 30.21834324 -0.08964634 32.37133789 -0.08862305 C33.38292465 -0.09783279 34.39451141 -0.10704254 35.43675232 -0.11653137 C44.5023897 -0.05694765 44.5023897 -0.05694765 48.21899414 3.2746582 C48.78149414 6.2746582 48.78149414 6.2746582 48.21899414 9.2746582 C45.3072989 12.08225756 43.22646855 12.65386733 39.23852539 12.67871094 C38.25070068 12.69139511 37.26287598 12.70407928 36.24511719 12.71714783 C35.18462158 12.71421219 34.12412598 12.71127655 33.03149414 12.70825195 C31.3895105 12.71611473 31.3895105 12.71611473 29.71435547 12.72413635 C27.40113167 12.73055671 25.08787523 12.72921941 22.7746582 12.72070312 C19.23207624 12.71218964 15.69110444 12.74096206 12.14868164 12.77270508 C9.90128629 12.77431705 7.65388808 12.77373963 5.40649414 12.77075195 C3.81575073 12.78760292 3.81575073 12.78760292 2.19287109 12.80479431 C-5.10337292 12.73550499 -5.10337292 12.73550499 -8.48022461 10.43896484 C-9.78100586 8.2746582 -9.78100586 8.2746582 -9.78100586 5.1496582 C-8.78100586 2.2746582 -8.78100586 2.2746582 -7.01731873 1.11213684 C-4.52766441 0.17978416 -2.65435801 0.01475674 0 0 Z " fill="#000000" transform="translate(161.781005859375,269.725341796875)"/>
<path d="M0 0 C1.50880737 -0.00218285 1.50880737 -0.00218285 3.0480957 -0.00440979 C5.17304381 -0.00275109 7.29800397 0.00880687 9.42285156 0.02954102 C12.67564925 0.05848829 15.9268165 0.05015039 19.1796875 0.03710938 C21.24479959 0.04334708 23.30990653 0.05173827 25.375 0.0625 C26.34800049 0.05956436 27.32100098 0.05662872 28.32348633 0.05360413 C29.23122803 0.0662883 30.13896973 0.07897247 31.07421875 0.09204102 C31.87045654 0.097444 32.66669434 0.10284698 33.48706055 0.1084137 C36.26748065 0.59827649 37.65558814 1.55823146 39.6875 3.49609375 C40.1875 6.49609375 40.1875 6.49609375 39.6875 9.49609375 C36.90288968 12.14626037 34.97082825 12.87148454 31.16601562 12.8684082 C29.8344342 12.87775139 29.8344342 12.87775139 28.47595215 12.88728333 C27.52482544 12.87807358 26.57369873 12.86886383 25.59375 12.859375 C24.11823669 12.86012276 24.11823669 12.86012276 22.61291504 12.86088562 C20.5350543 12.85854717 18.45719062 12.84883218 16.37939453 12.83227539 C13.19928654 12.8086812 10.02001705 12.81171659 6.83984375 12.81835938 C4.8203075 12.81278248 2.80077479 12.80567253 0.78125 12.796875 C-0.16987671 12.79778641 -1.12100342 12.79869781 -2.10095215 12.79963684 C-2.9886731 12.79010483 -3.87639404 12.78057281 -4.79101562 12.77075195 C-5.56948853 12.76614456 -6.34796143 12.76153717 -7.15002441 12.75679016 C-9.63129358 12.45766171 -11.22163643 11.86171187 -13.3125 10.49609375 C-14.3125 7.62109375 -14.3125 7.62109375 -14.3125 4.49609375 C-10.91101957 -0.93512454 -5.74666776 -0.06634934 0 0 Z " fill="#000000" transform="translate(166.3125,366.50390625)"/>
</svg>
